<?xml version="1.0" encoding="UTF-8" standalone="no"?>
<svg
   xmlns:dc="http://purl.org/dc/elements/1.1/"
   xmlns:cc="http://creativecommons.org/ns#"
   xmlns:rdf="http://www.w3.org/1999/02/22-rdf-syntax-ns#"
   xmlns:svg="http://www.w3.org/2000/svg"
   xmlns="http://www.w3.org/2000/svg"
   xmlns:sodipodi="http://sodipodi.sourceforge.net/DTD/sodipodi-0.dtd"
   xmlns:inkscape="http://www.inkscape.org/namespaces/inkscape"
   version="1.1"
   id="svg2"
   xml:space="preserve"
   width="2400"
   height="2400"
   viewBox="0 0 2400 2400"
   sodipodi:docname="home_button_image.ai"><metadata
     id="metadata8"><rdf:RDF><cc:Work
         rdf:about=""><dc:format>image/svg+xml</dc:format><dc:type
           rdf:resource="http://purl.org/dc/dcmitype/StillImage" /></cc:Work></rdf:RDF></metadata><defs
     id="defs6"><clipPath
       clipPathUnits="userSpaceOnUse"
       id="clipPath30"><path
         d="M 0,1800 H 1800 V 0 H 0 Z"
         id="path28" /></clipPath><clipPath
       clipPathUnits="userSpaceOnUse"
       id="clipPath70"><path
         d="M 0,1800 H 1800 V 0 H 0 Z"
         id="path68" /></clipPath></defs><sodipodi:namedview
     pagecolor="#ffffff"
     bordercolor="#666666"
     borderopacity="1"
     objecttolerance="10"
     gridtolerance="10"
     guidetolerance="10"
     inkscape:pageopacity="0"
     inkscape:pageshadow="2"
     inkscape:window-width="640"
     inkscape:window-height="480"
     id="namedview4" /><g
     id="g10"
     inkscape:groupmode="layer"
     inkscape:label="home_button_image"
     transform="matrix(1.3333333,0,0,-1.3333333,0,2400)"><text
       transform="matrix(1,0,0,-1,129.7197,544.3428)"
       style="font-style:italic;font-variant:normal;font-weight:bold;font-stretch:normal;font-size:600px;font-family:'Hemi Head Rg';-inkscape-font-specification:HemiHeadRg-BoldItalic;writing-mode:lr-tb;fill:#231f20;fill-opacity:1;fill-rule:nonzero;stroke:none"
       id="text14"><tspan
         x="0 387.60001 712.79999 1094.4"
         y="0"
         sodipodi:role="line"
         id="tspan12">ScAR</tspan></text><g
       id="g16"
       transform="translate(552.7198,873.1428)"><path
         d="M 0,0 H 408.147 L 450.114,77.392 16.2,77.4"
         style="fill:#231f20;fill-opacity:1;fill-rule:nonzero;stroke:none"
         id="path18" /></g><g
       id="g20"
       transform="translate(1342.9049,950.5432)"><path
         d="m 0,0 -118.046,-0.007 9.954,-79.193 h 91.291"
         style="fill:#231f20;fill-opacity:1;fill-rule:nonzero;stroke:none"
         id="path22" /></g><g
       id="g24"><g
         id="g26"
         clip-path="url(#clipPath30)"><g
           id="g32"
           transform="translate(1090.6028,1287.8467)"><path
             d="m 0,0 -4.712,-225.729 h 484.028 c -55.73,66.05 -111.461,132.101 -167.191,198.152 -3.47,5.07 -10.149,13.387 -21.222,20.034 -14.237,8.547 -27.911,9.634 -34.34,9.73"
             style="fill:#231f20;fill-opacity:1;fill-rule:nonzero;stroke:none"
             id="path34" /></g><g
           id="g36"
           transform="translate(260.4385,984.7168)"><path
             d="M 0,0 H 1414.447 L 1361.044,77.393 21.324,77.401"
             style="fill:#231f20;fill-opacity:1;fill-rule:nonzero;stroke:none"
             id="path38" /></g><g
           id="g40"
           transform="translate(515.4728,1120.6011)"><path
             d="M 0,0 -168.248,34.753 -331.387,68.45 v 82.576 L 0,75.513 Z"
             style="fill:#231f20;fill-opacity:1;fill-rule:nonzero;stroke:none"
             id="path42" /></g><g
           id="g44"
           transform="translate(390.1982,1062.1167)"><path
             d="M 0,0 -42.973,93.237 60.828,71.796 97.635,0 Z"
             style="fill:#231f20;fill-opacity:1;fill-rule:nonzero;stroke:none"
             id="path46" /></g></g></g><text
       transform="matrix(1,0,0,-1,114.8345,371.7227)"
       style="font-style:italic;font-variant:normal;font-weight:bold;font-stretch:normal;font-size:203px;font-family:'Hemi Head Rg';-inkscape-font-specification:HemiHeadRg-BoldItalic;writing-mode:lr-tb;fill:#231f20;fill-opacity:1;fill-rule:nonzero;stroke:none"
       id="text50"><tspan
         x="0 54.810001 178.437 302.064 425.69101 481.71899 605.95502 661.98297 796.57202 925.07098 1089.501 1214.955 1324.3719"
         y="0"
         sodipodi:role="line"
         id="tspan48">IEEE x RoMeLa</tspan></text><text
       transform="matrix(1,0,0,-1,129.7197,544.3428)"
       style="font-style:italic;font-variant:normal;font-weight:bold;font-stretch:normal;font-size:600px;font-family:'Hemi Head Rg';-inkscape-font-specification:HemiHeadRg-BoldItalic;writing-mode:lr-tb;fill:#231f20;fill-opacity:1;fill-rule:nonzero;stroke:none"
       id="text54"><tspan
         x="0 387.60001 712.79999 1094.4"
         y="0"
         sodipodi:role="line"
         id="tspan52">ScAR</tspan></text><g
       id="g56"
       transform="translate(552.7198,873.1428)"><path
         d="M 0,0 H 408.147 L 450.114,77.392 16.2,77.4"
         style="fill:#231f20;fill-opacity:1;fill-rule:nonzero;stroke:none"
         id="path58" /></g><g
       id="g60"
       transform="translate(1342.9049,950.5432)"><path
         d="m 0,0 -118.046,-0.007 9.954,-79.193 h 91.291"
         style="fill:#231f20;fill-opacity:1;fill-rule:nonzero;stroke:none"
         id="path62" /></g><g
       id="g64"><g
         id="g66"
         clip-path="url(#clipPath70)"><g
           id="g72"
           transform="translate(1090.6028,1287.8467)"><path
             d="m 0,0 -4.712,-225.729 h 484.028 c -55.73,66.05 -111.461,132.101 -167.191,198.152 -3.47,5.07 -10.149,13.387 -21.222,20.034 -14.237,8.547 -27.911,9.634 -34.34,9.73"
             style="fill:#231f20;fill-opacity:1;fill-rule:nonzero;stroke:none"
             id="path74" /></g><g
           id="g76"
           transform="translate(260.4385,984.7168)"><path
             d="M 0,0 H 1414.447 L 1361.044,77.393 21.324,77.401"
             style="fill:#231f20;fill-opacity:1;fill-rule:nonzero;stroke:none"
             id="path78" /></g><g
           id="g80"
           transform="translate(515.4728,1120.6011)"><path
             d="M 0,0 -168.248,34.753 -331.387,68.45 v 82.576 L 0,75.513 Z"
             style="fill:#231f20;fill-opacity:1;fill-rule:nonzero;stroke:none"
             id="path82" /></g><g
           id="g84"
           transform="translate(390.1982,1062.1167)"><path
             d="M 0,0 -42.973,93.237 60.828,71.796 97.635,0 Z"
             style="fill:#231f20;fill-opacity:1;fill-rule:nonzero;stroke:none"
             id="path86" /></g></g></g></g></svg>
